<svg id="Layer_1" data-name="Layer 1" xmlns="http://www.w3.org/2000/svg" viewBox="0 0 48 48"><title>15. Food - Drink - Cooking</title><path d="M47.14,6.5A45.85,45.85,0,0,0,24,0,45.85,45.85,0,0,0,.86,6.5L0,7,24,48,48,7ZM6.34,14.41a36.86,36.86,0,0,1,35.24.14L24,44Zm36.24-1.59a38.85,38.85,0,0,0-37.23-.14L2.74,7.74A43.8,43.8,0,0,1,24,2,43.81,43.81,0,0,1,45.26,7.74Z"/><path d="M22,19.5A3.5,3.5,0,1,0,18.5,23,3.5,3.5,0,0,0,22,19.5ZM18.5,21A1.5,1.5,0,1,1,20,19.5,1.5,1.5,0,0,1,18.5,21Z"/><path d="M29.5,16A3.5,3.5,0,1,0,33,19.5,3.5,3.5,0,0,0,29.5,16Zm0,5A1.5,1.5,0,1,1,31,19.5,1.5,1.5,0,0,1,29.5,21Z"/><path d="M24,27a3.5,3.5,0,1,0,3.5,3.5A3.5,3.5,0,0,0,24,27Zm0,5a1.5,1.5,0,1,1,1.5-1.5A1.5,1.5,0,0,1,24,32Z"/></svg>